<svg xmlns="http://www.w3.org/2000/svg" xmlns:xlink="http://www.w3.org/1999/xlink">
  <symbol id="icn-reload" viewBox="0 0 32 32">
    <path d="M11.1,16.2H7.9c0-0.5,0-1,0.1-1.4c0-0.1,0-0.1,0-0.2c0.8-4.4,5-7.3,9.3-6.5c1.5,0.3,2.9,1,4.1,2c0,0,0,0,0,0l2.7-2.7
      C19.4,2.9,11.8,3.2,7.3,8c-2.1,2.2-3.2,5.1-3.2,8.2H1l5,5l2.4-2.4L11.1,16.2z"/>
    <path d="M26,10.7l-2.4,2.4l-2.6,2.6h3.2c0,0.5,0,1-0.1,1.4c0,0.1,0,0.1,0,0.2c-0.8,4.4-5,7.3-9.3,6.5c-1.5-0.3-2.9-1-4.1-2.1
      c-0.1-0.1-0.2-0.2-0.3-0.3l-2.7,2.7c4.7,4.7,12.3,4.7,16.9,0c2.2-2.2,3.5-5.3,3.5-8.5H31L26,10.7z"/>
  </symbol>
</svg>
