<svg xmlns="http://www.w3.org/2000/svg" xmlns:xlink="http://www.w3.org/1999/xlink">
  <symbol id="icn-reload" viewBox="0 0 32 32">
    <path d="M11.1,16.2H7.9c0-0.5,0-1,0.1-1.4c0-0.1,0-0.1,0-0.2c0.8-4.4,5-7.3,9.3-6.5c1.5,0.3,2.9,1,4.1,2c0,0,0,0,0,0l2.7-2.7
      C19.4,2.9,11.8,3.2,7.3,8c-2.1,2.2-3.2,5.1-3.2,8.2H1l5,5l2.4-2.4L11.1,16.2z"/>
    <path d="M26,10.7l-2.4,2.4l-2.6,2.6h3.2c0,0.5,0,1-0.1,1.4c0,0.1,0,0.1,0,0.2c-0.8,4.4-5,7.3-9.3,6.5c-1.5-0.3-2.9-1-4.1-2.1
      c-0.1-0.1-0.2-0.2-0.3-0.3l-2.7,2.7c4.7,4.7,12.3,4.7,16.9,0c2.2-2.2,3.5-5.3,3.5-8.5H31L26,10.7z"/>
  </symbol>

  <symbol id="icn-clip" viewBox="0 0 32 32">
    <path class="st0" d="M11.6,6.3c-0.4,0-0.7-0.3-0.7-0.7V2.7H7.7C7.1,2.7,6.5,3,6.1,3.4C5.7,3.8,5.4,4.4,5.4,5v24.2
      c0,0.6,0.2,1.2,0.7,1.6c0.4,0.4,1,0.7,1.6,0.7h16.6c0.6,0,1.2-0.3,1.6-0.7c0.4-0.4,0.7-1,0.7-1.6V5c0-0.6-0.2-1.2-0.7-1.6
      c-0.4-0.4-1-0.7-1.6-0.7h-3.1v2.8c0,0.4-0.3,0.7-0.7,0.7C20.4,6.3,11.6,6.3,11.6,6.3z M12.4,4.6h7.3V2.9h-1.3
      c-0.4,0-0.7-0.4-0.7-0.7c0-0.5-0.2-0.9-0.5-1.2l0,0c-0.3-0.3-0.7-0.5-1.2-0.5c-0.5,0-0.8,0.2-1.2,0.5c-0.3,0.3-0.5,0.7-0.5,1.2
      c0,0.4-0.4,0.7-0.7,0.7h-1.3V4.6z M8.9,9.8H11v1.5H8.9V9.8z M8.9,14.9H11v1.5H8.9V14.9z M8.9,19.9H11v1.5H8.9V19.9z M8.9,25H11v1.5
      H8.9V25z M13,19.9h10.1v1.5H13V19.9z M13,25h10.1v1.5H13V25z M13,14.9h10.1v1.5H13V14.9z M13,9.8h10.1v1.5H13V9.8z"/>
  </symbol>
</svg>
