<svg xmlns="http://www.w3.org/2000/svg" xmlns:xlink="http://www.w3.org/1999/xlink">
<!-- source: iconify, icon8, various webrip  -->
  <symbol id="discord" viewBox="0 0 32 32">
    <path d="M26.964 0c1.875 0 3.385 1.516 3.474 3.302V32l-3.568-3.031l-1.958-1.781l-2.141-1.865l.891 2.938H4.948c-1.87 0-3.385-1.417-3.385-3.302V3.308c0-1.786 1.516-3.302 3.391-3.302h22zm-8.157 7.578h-.042l-.271.266c2.766.802 4.104 2.052 4.104 2.052c-1.781-.891-3.391-1.339-4.995-1.521c-1.156-.177-2.318-.083-3.297 0h-.271c-.625 0-1.958.271-3.745.984c-.62.271-.979.448-.979.448s1.333-1.339 4.281-2.052l-.182-.177s-2.229-.089-4.635 1.693c0 0-2.406 4.193-2.406 9.359c0 0 1.333 2.318 4.99 2.406c0 0 .536-.708 1.073-1.333c-2.052-.625-2.854-1.875-2.854-1.875s.182.089.448.266h.078c.042 0 .063.021.083.042v.01c.021.021.042.036.078.036c.443.182.88.359 1.24.536c.625.266 1.422.536 2.401.714c1.24.182 2.661.266 4.281 0c.797-.182 1.599-.354 2.401-.714c.516-.266 1.156-.531 1.859-.984c0 0-.797 1.25-2.938 1.875c.438.62 1.057 1.333 1.057 1.333c3.661-.083 5.083-2.401 5.161-2.302c0-5.161-2.422-9.359-2.422-9.359c-2.177-1.62-4.219-1.682-4.578-1.682l.073-.026zm.224 5.886c.938 0 1.693.797 1.693 1.776c0 .99-.76 1.786-1.693 1.786c-.938 0-1.693-.797-1.693-1.776c0-.99.76-1.786 1.693-1.786zm-6.057 0c.932 0 1.688.797 1.688 1.776c0 .99-.76 1.786-1.693 1.786c-.938 0-1.698-.797-1.698-1.776c0-.99.76-1.786 1.698-1.786z"/>
  </symbol>

  <symbol id="steam" viewBox="0 0 32 32">
    <path d="M15.974 0C7.573 0 .682 6.479.031 14.714l8.573 3.547a4.521 4.521 0 0 1 2.552-.786c.083 0 .167.005.25.005l3.813-5.521v-.078c0-3.328 2.703-6.031 6.031-6.031s6.036 2.708 6.036 6.036a6.039 6.039 0 0 1-6.036 6.031h-.135l-5.438 3.88c0 .073.005.141.005.214c0 2.5-2.021 4.526-4.521 4.526c-2.177 0-4.021-1.563-4.443-3.635L.583 20.36c1.901 6.719 8.063 11.641 15.391 11.641c8.833 0 15.995-7.161 15.995-16s-7.161-16-15.995-16zm-5.922 24.281l-1.964-.813a3.413 3.413 0 0 0 1.755 1.667a3.404 3.404 0 0 0 4.443-1.833a3.38 3.38 0 0 0 .005-2.599a3.36 3.36 0 0 0-1.839-1.844a3.38 3.38 0 0 0-2.5-.042l2.026.839c1.276.536 1.88 2 1.349 3.276s-2 1.88-3.276 1.349zm15.219-12.406a4.025 4.025 0 0 0-4.016-4.021a4.02 4.02 0 1 0 0 8.042a4.022 4.022 0 0 0 4.016-4.021zm-7.026-.005c0-1.672 1.349-3.021 3.016-3.021s3.026 1.349 3.026 3.021c0 1.667-1.359 3.021-3.026 3.021s-3.016-1.354-3.016-3.021z"/>
  </symbol>

  <symbol id="hl" viewBox="0 0 32 32">
    <path d="M16,32a15.59,15.59,0,0,1-6.22-1.27,15.58,15.58,0,0,1-8.51-8.51,15.87,15.87,0,0,1,0-12.44A15.58,15.58,0,0,1,9.78,1.27a15.87,15.87,0,0,1,12.44,0,15.58,15.58,0,0,1,8.51,8.51,15.87,15.87,0,0,1,0,12.44,15.58,15.58,0,0,1-8.51,8.51A15.59,15.59,0,0,1,16,32ZM16,4A12,12,0,0,0,4,16,12,12,0,0,0,16,28,12,12,0,0,0,28,16,12,12,0,0,0,16,4Zm3,20-2.91-9.31L11,24H8l7.13-12.44L14.63,10H12V8h5l4.47,12.5L24,20l1,2Z"/>
  </symbol>

  <symbol id="unturned" viewBox="0 0 32 32">
    <g>
      <polygon points="9.2,22.3 9.2,24 22.3,24 22.3,22.3 20,22.3 20,20.6 11.4,20.6 11.4,22.3 	"/>
      <path d="M30.4,0H1.6C0.7,0,0,0.7,0,1.6v28.8C0,31.3,0.7,32,1.6,32h28.8c0.9,0,1.6-0.7,1.6-1.6V1.6
        C32,0.7,31.3,0,30.4,0z M2.9,13.1h3.4v3.4H2.9V13.1z M24.1,28.6h-1.8v-2.9H7.4V28H5.7v-4h1.7v-3.4h1.8h2.2v-1.7H20v1.7h2.3h1.8
        V28.6z M29.1,16.6h-3.4v-3.4h3.4V16.6z"/>
    </g>
  </symbol>

  <symbol id="l4d" viewBox="0 0 32 32">
    <g>
      <path d="M17.3,2.4c0.5,0,1,0.4,1.5,0.3c0.3,0.7,0.5,0.4,1,0.2c0.3-0.2,1-0.3,1.5,0c0.3,0.2,0.5,0.1,0.7-0.1
        c0.8-0.8,1.4-0.7,1.9,0.4c0.2,0.5,0.5,0.9,0.7,1.4C24.7,5,25,5,25.2,4.9c0.3-0.2,0.7-0.4,0.9-0.8c0.1-0.3,0.2-0.5,0.6-0.5
        c0.4,0,0.5,0.2,0.6,0.5c-0.1,0.2-0.2,0.4-0.3,0.6c-0.5,0.6-0.2,0.9,0.3,1.2c0,0,0,0,0.1,0c0.1,0,0.1,0.1,0.2,0.1
        c0.1,0.2,0.2,0.4,0.4,0.6c0.3,0.4,0.6,0.3,0.8-0.2c0.1-0.3,0.3-0.3,0.5-0.3c0.3,0.1,0.7-0.1,0.7,0.4c0,0.4,0,0.8,0,1.3
        c0,0.4,0.2,0.7,0.5,0.9c0.1,0.4,0.5,0.6,0.7,0.9c0.2,0.7,0.4,1.4,0.7,2.1c0.3,0.7,0.3,1.3,0.2,2.1c-0.1,0.6-0.2,1.3-0.1,1.9
        c0.2,0.8,0.1,1.6-0.2,2.3c-0.4,1-0.6,2-0.7,3.1c0,0.6-0.6,1.5-1,1.5c-0.5,0-0.9,0.2-1.3,0.5c-0.4,0.3-0.9,0.5-1.4,0.6
        c-0.2,0-0.6,0.1-0.6,0.4c0,0.3,0.1,0.7,0.5,0.8c0.2,0.1,0.3,0.2,0.4,0.4c-0.3,0.2-0.2,0.6-0.6,0.7c-0.2,0-0.2-0.2-0.4-0.3
        c-0.4-0.6-0.9-0.5-1.4-0.2c-0.4,0.2-0.7,0.6-1.3,0.1c-0.3-0.2-0.7,0.1-0.9,0.3c-0.2,0.1,0,0.4,0.1,0.6c0,0.1,0,0.2,0.1,0.3
        c-0.1,0-0.1,0-0.2,0c-0.2-0.1-0.3-0.2-0.4-0.3c-0.2-0.3-0.5-0.2-0.5,0.1c0,0.8-0.7,1-1.2,1.2c0,0,0,0-0.1,0c-0.3,0.2-0.7,0.2-1,0
        c-0.2-0.1-0.3-0.3-0.5-0.3c0,0,0,0,0,0c-0.1,0-0.1-0.1-0.2-0.1c0-0.1-0.1-0.2-0.1-0.3c0-0.2-0.1-0.5-0.3-0.6
        c-0.7-0.2-1.4-0.6-2.2-0.5c-0.5,0-1.2,0.3-1.6-0.3c-0.2-0.2-0.4-0.5-0.7-0.2c-0.3,0.2-0.4,0.5-0.4,0.9c0.1,0.8,0.1,0.8-0.7,0.7
        c-0.8-0.1-1.5,0.6-1.4,1.4c0,0.1,0,0.2-0.1,0.2c-0.1,0.1-0.2,0-0.2-0.1s-0.1-0.1-0.2-0.2c-0.3-0.2-0.5,0.1-0.8,0.1
        c-0.1,0-0.2,0.2-0.1,0.3c0.1,0.3,0.4,0.1,0.6,0.2c0.5,0.2,1,0,1.5,0.1c0.2,0.1,0.3,0.2,0.3,0.4c-0.2,0.4-0.5,0.6-1,0.6
        c-0.4,0-0.9,0.1-1.3,0.2c-0.3,0-0.5-0.3-0.6-0.5c-0.4-0.5-0.7-1-1.4-1.1c-0.3-0.1-0.5-0.4-0.7-0.6c0-0.6-0.3-0.6-0.7-0.4
        c-0.6-0.1-0.6-0.6-0.8-1c0-0.9-0.8-0.7-1.2-1c-0.5-0.6-0.4-1.3-0.7-2c0-0.1,0-0.2,0-0.2c0.6-0.6,0.1-0.9-0.4-1.2
        c-0.6-0.4-0.5-1,0.2-1.7c0.1-0.3-0.1-0.5-0.4-0.6l0,0c-0.4-1.1-1.3-1.2-2.2-1.5l0,0c-0.1-0.7-0.4-1-1.1-0.8c-0.4-1.4,0.2-3,1.4-3.1
        c0.7-0.1,1.2,0.2,1.7,0.6c0.3,0.3,0.6,0.7,0.8,1.1c0.3,0.6,0.8,0.8,1.3,1.2c0.7,0.5,1,0.2,1.5-0.2c0.1-0.1,0.3-0.1,0.5-0.1
        c0.5,0,0.7-0.1,0.7-0.7c0-0.2,0.1-0.5,0.3-0.6c0.3-0.1,0.4,0.2,0.5,0.3c0.4,0.4,0.7,0.8,1.3,0.3c0.5-0.5,0.6-0.9,0.1-1.6
        c-0.1-0.2-0.2-0.3-0.3-0.5c-0.4-0.7-0.4-1.1,0.2-1.5c0.4-0.3,0.7-0.6,0.7-1.1c0-0.2,0.1-0.4,0.3-0.5c0.3-0.2,0.3-0.5,0.2-0.8
        c-0.2-0.6,0-0.9,0.5-1.2c0.3-0.1,0.7-0.2,0.2-0.7c-0.2-0.2,0-0.3,0.1-0.5c0.4-0.4,0.5-0.8,0.2-1.3C12,7,12,6.7,12.6,6.5
        c0.5-0.2,0.5-0.5,0.1-0.8c-0.2-0.2-0.4-0.4-0.2-0.7c0.2-0.3,0.4,0,0.6,0.1c0.1,0.1,0.2,0.1,0.3,0.1c0.4,0,1.8-1,1.9-1.5
        c0.1-0.2,0.2-0.2,0.4-0.2C16,3.4,16.3,3.2,16,2.7c-0.1-0.1,0-0.3-0.1-0.5C15.8,2,15.7,1.6,16,1.5c0.3-0.2,0.5,0.1,0.7,0.3
        c0,0.1,0,0.1,0,0.2c0,0.2-0.4,0.4-0.1,0.6C16.9,2.8,17.1,2.5,17.3,2.4z M22.2,24.7c0.1,0,0.1,0.1,0.2,0.1c-0.2,0.7,0.2,0.4,0.5,0.4
        c0.2,0,0.5,0,0.7,0c0.4,0.2,0.7,0.2,1.1,0c0.7-0.2,0.6-0.8,0.6-1.3c0-0.6,0-1.2-0.1-1.9c-0.1-1.1,0.3-1.8,1.4-2.1
        c0.2-0.1,0.4-0.2,0.6-0.3c0.7-0.4,0.8-0.8,0.5-1.6c-0.2-0.5-0.8-0.9-1.5-0.7c-0.1,0-0.4,0.1-0.3,0c0.3-0.6-0.3-0.4-0.5-0.6
        c0-0.3,0-0.6,0-0.9c0-0.5,0.1-0.9,0.1-1.4c0.1-0.1,0.1-0.2,0.2-0.4c0.4-1.5-0.2-2.9-0.4-4.4c0.3-0.3,0.3-0.8,0.3-1.2
        c0-0.3,0.2-0.9-0.5-0.9c0-0.1-0.1-0.2-0.1-0.4c-0.1-0.2,0.2-0.5-0.2-0.6c0-0.3-0.3-0.4-0.5-0.4c-0.8-0.2-1.6-0.4-2.4-0.4
        c-1.3-0.1-2.5,0.2-3.2,1.5c-0.7,1.4-1.5,2.7-2.8,3.8c-0.4,0.3-0.6,0.8-0.7,1.2c-0.3,0.9-0.6,1.7-1.4,2.2c-0.3,0.2-0.6,0.6-0.5,1.1
        c-0.3,0.5-0.7,0.9-0.7,1.5c0,0.4-0.2,0.8-0.3,1.2c-0.5,1.1-0.2,1.6,1,2c2.2,0.2,4.4,0.9,6.7,0.6c0.1,0,0.2,0.1,0.2,0.1
        c0,0.4,0.4,0.5,0.6,0.8c0,0.4,0,0.8,0,1.3c0,0.3,0.1,0.5,0.4,0.5c0,0.1-0.1,0.2-0.1,0.3c-0.1,0.2,0.2,0.3,0.1,0.5
        c-0.1,0.8,0.3,0.5,0.7,0.4c0.1,0,0.1,0,0.2-0.1C22.1,24.8,22.1,24.8,22.2,24.7z"/>
      <path d="M22,28.4c0-0.2-0.1-0.5,0.3-0.6c0.2,0.1,0.5,0,0.4,0.4C22.6,28.7,22.3,28.5,22,28.4z"/>
      <path d="M25.1,28.4c-0.1,0.2-0.1,0.4-0.3,0.4c-0.2,0-0.4-0.1-0.5-0.3c0-0.2,0.2-0.3,0.3-0.3
        C24.8,28.2,25,28.3,25.1,28.4z"/>
      <path d="M19.8,16.9c-0.4,0-1,0.1-1.5-0.1c-0.5-0.2-0.8-0.4-0.5-1c0.5-1.1,0.7-2.3,1.9-2.9c0.4-0.2,0.5-0.2,0.8,0.1
        c0.4,0.5,0.5,1.2,0.7,1.8c0.1,0.2,0.2,0.5,0.5,0.6c0.4,0.1,0.6,0.3,0.5,0.7c-0.1,0.4-0.3,0.8-0.8,0.8C20.8,17,20.3,16.9,19.8,16.9z
        "/>
    </g>
  </symbol>

  <symbol id="minecraft" viewBox="0 0 32 32">
    <polygon class="st0" points="6.4,6.4 6.4,12.8 12.8,12.8 12.8,16 9.6,16 9.6,25.6 12.8,25.6 12.8,22.4 19.2,22.4 19.2,25.6 
    22.4,25.6 22.4,16 19.2,16 19.2,12.8 25.6,12.8 25.6,6.4 19.2,6.4 19.2,12.8 12.8,12.8 12.8,6.4 "/>
  </symbol>

  <symbol id="nmrih" viewBox="0 0 32 32">
    <style type="text/css">
      .st0{font-family:'MyriadPro-Regular';}
      .st1{font-size:6.7325px;}
    </style>
    <text transform="matrix(1 0 0 1 1.5716 9.5908)"><tspan x="0" y="0" class="st0 st1">no more</tspan><tspan x="0" y="8.1" class="st0 st1">room in</tspan><tspan x="0" y="16.2" class="st0 st1">hell</tspan></text>
  </symbol>

</svg>


